<svg xmlns="http://www.w3.org/2000/svg" xmlns:xlink="http://www.w3.org/1999/xlink" version="1.1" x="0px" y="0px" viewBox="0 0 100 100" enable-background="new 0 0 100 100" xml:space="preserve"><path d="M61.79,83.462c-0.182-0.911-2.368-6.148-1.412-11.432c0.956-5.283,1.708-14.665,1.809-15.417  c0.101-0.751-0.215-0.873-0.215-0.873c0.577-3.826-0.182-11.173-0.243-12.054c-0.061-0.881-1.048-4.6-1.048-4.6  c0.121-0.061,0.334-0.121,0.258-0.592c0.121-0.926-1.123-5.131-1.488-6.558c-0.364-1.427-2.004-5.344-2.338-6.224  c-0.334-0.881-1.245-4.304-1.427-5.124c-0.182-0.82-0.615-0.855-0.615-0.855c-0.019-0.585-0.331-1.735-0.429-2.437  c-0.097-0.702-0.292-2.573-0.273-4.737c1.287-0.448,1.033-0.897,0.975-1.442c-0.058-0.546-0.916-3.392-0.916-3.392h0.916  c0-2.651-1.306-2.748-1.306-2.748h-3.975H50h0h-0.068h-3.971c0,0-1.306,0.097-1.306,2.748h0.916c0,0-0.858,2.846-0.916,3.392  c-0.058,0.546-0.312,0.994,0.975,1.442c0.019,2.164-0.175,4.035-0.273,4.737c-0.097,0.702-0.409,1.852-0.429,2.437  c0,0-0.433,0.035-0.615,0.855c-0.182,0.82-1.093,4.243-1.427,5.124c-0.334,0.881-1.974,4.797-2.338,6.224  c-0.364,1.427-1.609,5.632-1.488,6.558c-0.076,0.471,0.137,0.531,0.258,0.592c0,0-0.987,3.719-1.048,4.6  c-0.061,0.881-0.82,8.228-0.243,12.054c0,0-0.316,0.121-0.215,0.873c0.101,0.751,0.853,10.134,1.809,15.417  c0.956,5.283-1.23,10.521-1.412,11.432c-0.182,0.911-0.911,4.979,0.121,7.226c0,0.849-0.555,4.298,11.601,4.311v0h0.132v0  c12.16-0.012,11.604-3.463,11.604-4.311C62.701,88.442,61.972,84.373,61.79,83.462z"/></svg>